<?xml version="1.0" encoding="UTF-8" standalone="no"?>
<!-- Created with Inkscape (http://www.inkscape.org/) -->

<svg
   width="32"
   height="32"
   viewBox="0 0 32 32"
   version="1.1"
   id="svg1"
   inkscape:export-filename="DropOpen.svg"
   inkscape:export-xdpi="96"
   inkscape:export-ydpi="96"
   inkscape:version="1.4 (e7c3feb100, 2024-10-09)"
   sodipodi:docname="IconsDrawing.svg"
   xmlns:inkscape="http://www.inkscape.org/namespaces/inkscape"
   xmlns:sodipodi="http://sodipodi.sourceforge.net/DTD/sodipodi-0.dtd"
   xmlns="http://www.w3.org/2000/svg"
   xmlns:svg="http://www.w3.org/2000/svg">
  <sodipodi:namedview
     id="namedview1"
     pagecolor="#ffffff"
     bordercolor="#000000"
     borderopacity="0.25"
     inkscape:showpageshadow="2"
     inkscape:pageopacity="0.0"
     inkscape:pagecheckerboard="0"
     inkscape:deskcolor="#d1d1d1"
     inkscape:document-units="px"
     inkscape:zoom="22.627417"
     inkscape:cx="13.390835"
     inkscape:cy="14.451495"
     inkscape:window-width="1920"
     inkscape:window-height="1012"
     inkscape:window-x="0"
     inkscape:window-y="0"
     inkscape:window-maximized="1"
     inkscape:current-layer="svg1">
    <inkscape:page
       x="0"
       y="0"
       width="32"
       height="32"
       id="page2"
       margin="0"
       bleed="0" />
  </sodipodi:namedview>
  <defs
     id="defs1" />
  <path
     id="path13"
     style="fill:#ffffff;stroke-width:5.52129;stroke-linecap:round"
     d="M 16,2 A 14,14 0 0 0 2,16 14,14 0 0 0 16,30 14,14 0 0 0 30,16 14,14 0 0 0 16,2 Z m 0,1 A 13,13 0 0 1 29,16 13,13 0 0 1 16,29 13,13 0 0 1 3,16 13,13 0 0 1 16,3 Z m 0,1.5 A 11.5,11.5 0 0 0 4.5,16 11.5,11.5 0 0 0 16,27.5 11.5,11.5 0 0 0 27.5,16 11.5,11.5 0 0 0 16,4.5 Z m 0.0098,3.6386719 c 0.284444,0 0.534713,0.099717 0.748046,0.2988281 0.227555,0.1848886 0.341797,0.4840406 0.341797,0.8964844 0,0.3982216 -0.114242,0.6954206 -0.341797,0.8945316 -0.213333,0.19911 -0.463602,0.298828 -0.748046,0.298828 -0.312889,0 -0.57573,-0.09972 -0.789063,-0.298828 -0.213333,-0.199111 -0.320312,-0.49631 -0.320312,-0.8945316 0,-0.4124438 0.106979,-0.7115958 0.320312,-0.8964844 C 15.43407,8.2383892 15.696911,8.1386719 16.0098,8.1386719 Z m -0.958985,4.2871091 h 1.876953 v 11.435547 h -1.876953 z"
     inkscape:label="About" />
</svg>
