<?xml version="1.0" encoding="UTF-8" standalone="no"?>
<!-- Created with Inkscape (http://www.inkscape.org/) -->

<svg
   width="32"
   height="32"
   viewBox="0 0 32 32"
   version="1.1"
   id="svg1"
   inkscape:export-filename="Save.svg"
   inkscape:export-xdpi="96"
   inkscape:export-ydpi="96"
   inkscape:version="1.4 (e7c3feb100, 2024-10-09)"
   sodipodi:docname="IconsDrawing.svg"
   xmlns:inkscape="http://www.inkscape.org/namespaces/inkscape"
   xmlns:sodipodi="http://sodipodi.sourceforge.net/DTD/sodipodi-0.dtd"
   xmlns="http://www.w3.org/2000/svg"
   xmlns:svg="http://www.w3.org/2000/svg">
  <sodipodi:namedview
     id="namedview1"
     pagecolor="#ffffff"
     bordercolor="#000000"
     borderopacity="0.25"
     inkscape:showpageshadow="2"
     inkscape:pageopacity="0.0"
     inkscape:pagecheckerboard="0"
     inkscape:deskcolor="#d1d1d1"
     inkscape:document-units="px"
     inkscape:zoom="22.627417"
     inkscape:cx="13.390835"
     inkscape:cy="14.451495"
     inkscape:window-width="1920"
     inkscape:window-height="1012"
     inkscape:window-x="0"
     inkscape:window-y="0"
     inkscape:window-maximized="1"
     inkscape:current-layer="svg1">
    <inkscape:page
       x="0"
       y="0"
       width="32"
       height="32"
       id="page2"
       margin="0"
       bleed="0" />
  </sodipodi:namedview>
  <defs
     id="defs1" />
  <path
     id="path86"
     style="display:inline;fill:#ffffff;fill-opacity:1;stroke:none;stroke-width:1.47511;stroke-dasharray:none;stroke-opacity:1"
     d="M 18.681097,8.4999997e-8 A 2.7463267,3.4866792 0 0 1 15.991388,2.8131868 2.7463267,3.4866792 0 0 1 13.330475,0.01152954 16.218889,16.23347 0 0 0 6.5630077,2.8420104 3.4851139,2.7475519 45.110305 0 1 6.6206077,6.6986127 3.4851139,2.7475519 45.110305 0 1 2.7962673,6.6265527 16.218889,16.23347 0 0 0 6.595e-6,13.394344 3.4835471,2.7487959 0 0 1 2.7386716,16.077823 3.4835471,2.7487959 0 0 1 0.02592446,18.726716 16.218889,16.23347 0 0 0 2.8625016,25.468563 2.7475586,3.4851158 44.889695 0 1 4.9301798,24.782561 2.7475586,3.4851158 44.889695 0 1 6.6206077,25.454153 2.7475586,3.4851158 44.889695 0 1 6.6320987,29.218519 16.218889,16.23347 0 0 0 13.347737,32 a 2.74632,3.4866775 0 0 1 2.643633,-2.660422 2.74632,3.4866775 0 0 1 2.666671,2.654657 16.218889,16.23347 0 0 0 6.709873,-2.793011 3.4851158,2.7475586 45.110305 0 1 -0.0058,-3.747071 3.4851158,2.7475586 45.110305 0 1 1.690426,-0.671592 3.4851158,2.7475586 45.110305 0 1 2.067679,0.686002 16.218889,16.23347 0 0 0 2.836578,-6.741847 3.4835454,2.7487894 0 0 1 -2.712748,-2.648893 3.4835454,2.7487894 0 0 1 2.755944,-2.657538 A 16.218889,16.23347 0 0 0 29.21234,6.6063771 2.7475519,3.4851139 44.889695 0 1 25.362082,6.6986131 2.7475519,3.4851139 44.889695 0 1 25.462883,2.8304814 16.218889,16.23347 0 0 0 18.681061,4.85e-7 Z M 15.991388,7.1482617 a 8.8466664,8.8546204 0 0 1 8.846666,8.8546193 8.8466664,8.8546204 0 0 1 -8.846666,8.854622 8.8466664,8.8546204 0 0 1 -8.8466671,-8.854622 8.8466664,8.8546204 0 0 1 8.8466671,-8.8546193 z"
     inkscape:label="Settings" />
</svg>
